<svg width="40" height="42" viewBox="0 0 40 42" fill="none" xmlns="http://www.w3.org/2000/svg">
<path d="M14.3092 38.8226C15.7154 38.8226 16.586 38.0357 16.5692 36.663L16.2344 17.8627C16.2344 17.2769 16.4855 16.8416 17.0045 16.6071C19.2143 15.6361 20.1686 14.615 20.0514 11.6853L19.5826 1.40625C19.5491 0.669643 19.1139 0.251116 18.4275 0.251116C17.7746 0.251116 17.3728 0.686384 17.3728 1.43973L17.49 11.4342C17.49 12.0201 17.1217 12.3884 16.5692 12.3884C16 12.3884 15.5982 12.0368 15.5982 11.4844L15.4308 1.13839C15.4141 0.418527 14.9956 0 14.3092 0C13.6228 0 13.221 0.418527 13.2043 1.13839L13.0369 11.4844C13.0369 12.0368 12.6351 12.3884 12.0659 12.3884C11.5134 12.3884 11.1284 12.0201 11.1284 11.4342L11.2456 1.43973C11.2456 0.686384 10.8605 0.251116 10.1909 0.251116C9.50449 0.251116 9.06923 0.669643 9.03574 1.40625L8.58374 11.6853C8.44981 14.615 9.40405 15.6361 11.6139 16.6071C12.1328 16.8416 12.384 17.2769 12.384 17.8627L12.0659 36.663C12.0491 38.0357 12.9029 38.8226 14.3092 38.8226ZM27.4007 24.2243L27.0491 36.5793C26.999 38.0357 27.8861 38.8226 29.2757 38.8226C30.6987 38.8226 31.5693 38.1027 31.5693 36.7634V1.25558C31.5693 0.401786 30.9833 0 30.3806 0C29.7444 0 29.326 0.334821 28.7903 1.12165C26.0948 4.90513 24.3204 11.9866 24.3204 18.683V19.5033C24.3204 20.6584 24.7388 21.5123 25.576 22.0647L26.5637 22.7344C27.1663 23.1529 27.4341 23.6217 27.4007 24.2243Z" fill="#262626"/>
</svg>
