<svg width="40" height="40" viewBox="0 0 40 40" fill="none" xmlns="http://www.w3.org/2000/svg">
<path d="M3.53249 27.2249C4.7326 27.2249 5.65121 26.3062 5.65121 25.1359V13.9348C5.65121 12.7495 4.7326 11.816 3.53249 11.816C2.34719 11.816 1.42859 12.7495 1.42859 13.9348V25.1359C1.42859 26.3062 2.34719 27.2249 3.53249 27.2249ZM10.5702 30.4994C12.5407 30.4994 13.9187 29.1807 13.9187 27.3138V11.7716C13.9187 9.88993 12.5407 8.57129 10.5702 8.57129C8.61445 8.57129 7.23655 9.88993 7.23655 11.7716V27.3138C7.23655 29.1807 8.61445 30.4994 10.5702 30.4994ZM15.6374 22.3948H24.8382V16.6758H15.6374V22.3948ZM29.9053 30.4994C31.8759 30.4994 33.2539 29.1807 33.2539 27.3138V11.7716C33.2539 9.88993 31.8759 8.57129 29.9053 8.57129C27.9497 8.57129 26.5717 9.88993 26.5717 11.7716V27.3138C26.5717 29.1807 27.9497 30.4994 29.9053 30.4994ZM36.795 27.2249C37.9803 27.2249 38.9136 26.3062 38.9136 25.1359V13.9348C38.9136 12.7495 37.9803 11.816 36.795 11.816C35.6097 11.816 34.691 12.7495 34.691 13.9348V25.1359C34.691 26.3062 35.6097 27.2249 36.795 27.2249Z" fill="#262626"/>
</svg>
