<svg width="40" height="40" viewBox="0 0 40 40" fill="none" xmlns="http://www.w3.org/2000/svg">
<g clip-path="url(#clip0_922_44661)">
<path d="M37.2507 11.7807L24.2402 5.82702C22.8847 5.2157 21.7816 4.92332 20.6785 4.9499C19.5888 4.92332 18.4857 5.2157 17.1169 5.82702L4.11969 11.7807C3.26916 12.1662 2.85718 12.8439 2.85718 13.5217C2.85718 14.1994 3.26916 14.864 4.11969 15.2627L9.59502 17.7611L18.0074 13.8141C17.9276 13.7211 17.901 13.6147 17.901 13.5217C17.901 12.6844 19.3097 12.0465 20.7317 12.0465C22.1669 12.0465 23.5491 12.6844 23.5491 13.5217C23.5491 14.3855 22.1669 15.0367 20.7317 15.0367C20.2931 15.0367 19.8546 14.9702 19.4692 14.864L11.4423 18.6249L17.1169 21.2297C18.4857 21.8542 19.5888 22.1201 20.6785 22.1068C21.7816 22.1201 22.8847 21.8542 24.2402 21.2297L37.2507 15.2627C38.1012 14.864 38.5132 14.1994 38.5132 13.5217C38.5132 12.8439 38.1012 12.1662 37.2507 11.7807ZM11.3891 20.5918V28.6719C13.6218 30.0274 16.8113 30.8513 20.6785 30.8513C28.5194 30.8513 33.5694 27.4891 33.5694 23.5155V18.9438L24.9976 22.8643C23.4427 23.582 22.0341 23.9408 20.6785 23.9275C19.3362 23.9408 17.9143 23.582 16.3594 22.8643L11.3891 20.5918ZM7.80092 18.9438V23.5155C7.80092 24.6717 8.46539 26.1069 9.66146 27.3296V19.8077L7.80092 18.9438ZM9.66146 31.755H11.3891V28.6719C10.7246 28.2732 10.1399 27.8214 9.66146 27.3296V31.755ZM8.61158 31.8481V35.3433C8.61158 36.3932 9.28936 37.0709 10.3392 37.0709H10.698C11.7479 37.0709 12.4257 36.3932 12.4257 35.3433V31.8481C12.4257 30.7982 11.7479 30.1204 10.698 30.1204H10.3392C9.28936 30.1204 8.61158 30.7982 8.61158 31.8481Z" fill="#262626"/>
</g>
<defs>
<clipPath id="clip0_922_44661">
<rect width="40" height="40" fill="white"/>
</clipPath>
</defs>
</svg>
