<svg width="40" height="40" viewBox="0 0 40 40" fill="none" xmlns="http://www.w3.org/2000/svg">
<path d="M3.52942 32.9409V25.5356C3.52942 23.406 3.91821 21.1916 4.69579 18.8926C5.49694 16.5694 6.58084 14.3792 7.9475 12.3222C9.33772 10.241 10.8929 8.48642 12.613 7.05859L18.5509 11.0154C17.1607 13.1692 15.9943 15.4198 15.0518 17.7673C14.1328 20.0905 13.6851 22.6558 13.7087 25.463V32.9409H3.52942ZM21.4491 32.9409V25.5356C21.4491 23.406 21.8379 21.1916 22.6155 18.8926C23.4167 16.5694 24.5006 14.3792 25.8672 12.3222C27.2574 10.241 28.8126 8.48642 30.5327 7.05859L36.4706 11.0154C35.0804 13.1692 33.914 15.4198 32.9715 17.7673C32.0525 20.0905 31.6048 22.6558 31.6284 25.463V32.9409H21.4491Z" fill="#356554"/>
</svg>
